<svg width="161" height="29" viewBox="0 0 161 29" fill="none" xmlns="http://www.w3.org/2000/svg">
<path d="M18.8721 0.963867C21.3688 0.963867 22.9867 1.92907 23.9678 3.18164C24.9309 4.41159 25.2499 5.87762 25.25 6.86719V12.79L25.2471 12.8174C25.0293 14.7818 23.8838 16.0134 22.5801 16.7363C21.2938 17.4496 19.8341 17.6836 18.8721 17.6836H11.5361V28H0.25V0.963867H18.8721ZM13 5.32031C11.8956 5.32031 11.0002 6.21594 11 7.32031V11.0352C11.0001 12.1397 11.8955 13.0352 13 13.0352C14.1045 13.0352 14.9999 12.1397 15 11.0352V7.32031C14.9998 6.21594 14.1044 5.32031 13 5.32031Z" fill="white"/>
<path d="M49 1C52.3137 1 55 3.68629 55 7V22C55 25.3137 52.3137 28 49 28H36C32.6863 28 30 25.3137 30 22V7C30 3.68629 32.6863 1 36 1H49ZM43 6C41.8954 6 41 6.89543 41 8V22C41 23.1046 41.8954 24 43 24C44.1046 24 45 23.1046 45 22V8C45 6.89543 44.1046 6 43 6Z" fill="white"/>
<path d="M125 1C128.314 1 131 3.68629 131 7V22C131 25.3137 128.314 28 125 28H112C108.686 28 106 25.3137 106 22V7C106 3.68629 108.686 1 112 1H125ZM119 6C117.895 6 117 6.89543 117 8V22C117 23.1046 117.895 24 119 24C120.105 24 121 23.1046 121 22V8C121 6.89543 120.105 6 119 6Z" fill="white"/>
<path d="M58.5 6.5V2H94L87.5 7H76.5V28.5H66V6.5H58.5Z" fill="white"/>
<path d="M100 2H97L89.5 8V28.5H100V2Z" fill="white"/>
<path d="M135.75 28V2H144.934L150.546 13.5V2H160.75V28H150.546L145.954 18V28H135.75Z" fill="white"/>
</svg>
